<?xml version="1.0" encoding="UTF-8"?>
<svg id="Calque_1" xmlns="http://www.w3.org/2000/svg" version="1.1" viewBox="0 0 1000 1000">
  <!-- Generator: Adobe Illustrator 29.3.1, SVG Export Plug-In . SVG Version: 2.1.0 Build 151)  -->
  <path d="M970.6,500c0,257.3-208.6,465.9-465.9,465.9S38.7,757.3,38.7,500,247.3,34.1,504.6,34.1c257.3,0,465.9,208.6,465.9,465.9ZM947.9,533.9c15.3-174.8-80-344.3-233.3-426.2C523.7,5.7,288.2,56,155,224.8c-126.7,160.7-127,388.1-.8,549.2l7.1,8.4c-4.4-14.7-7.6-29.7-9.1-45.1l-.7-49.3-4.1-53.5c-28.3-22.8-47.6-56.1-46-93.4-45.5-42-49.5-112.5,2.5-151.6,59-44.4,126.5-8.3,149.2,55.2,1.3,3.7,3.1,13.5,4.6,15.8s5.8,4.5,7.5,6.1c33.9,32.5,54,69.9,36.4,117.5-14.1,38-47.2,64.3-87.9,67.8,2.8,6.6,5.3,13.5,8.4,20,8.3,17,25,36,38.1,49.7s2.5,3,3.8,3l11.3-4.5c7.9-34.8,26-67,61.5-78.9,20.3-62.6,71.3-123.5,141.3-127.7,8.9-17.3,26.8-23.8,39.4-37.9,4.4-4.9,8.1-10.7,12.1-15.9-.3-.9-1.7-.2-2.3,0-24.6,6.9-42.5,26.8-70.3,19.6s-13.5-13-11.8-23c-7.6-3.6-20.8-6.2-22.8-15.8s0-6.6-.7-7.7-4.8-1.8-6.5-3.6c-3.3-3.6-3.2-9.6-6.9-13.4-5.4-5.5-6-1.2-10.9.3s-12.3-1-15.2-5.4c-7-10.8,1.3-47.9-3-63.6s-5.4-6.3-9.1-10.6c-6.3-7.3-4.3-16-5.1-24.5-.5-5.7-3-11.4-4.1-17.1-2.2-11.5-2.5-23.5-1.1-35.1-5.7-2.2-11.9-2.9-17.7-5.2-33.5-13.2-29.1-47-14.2-73.3,2.1,1.4,1.2,5.2,2.7,7.5,3.7,5.9,19.5,0,24.6-1.9,24.6-9.4,45.1-27,68.2-38.6,17.9-9,37.8-14.7,57.5-18.3,26.2-4.8,54.9-12.4,74.4,10.8s4.6,7.6,6.1,9,6.3,2.9,8.5,4.4c30.5,19.2,56.2,48.8,60.3,85.9s-7.8,46.2,2,67.7c2.8,6,10,11.8,8.5,19.1-.4,2.2-3,4.1-2.8,6.1s7.2,12.4,8.8,14.8c13.4,20,37.7,45.4,60.6,53.8,27.7,10.1,58.6,10.5,83.8,28.4,8,5.7,12.6,12.1,22.3,15.6,15.1,5.5,34.4,7.4,50.4,11.8,33.6,9.1,49.9,19.3,68.3,49.1l15.6,27.2ZM553.9,429.7c.6-5.9-.4-12.6,0-18.6l16.3,38.7c7.5,21.6,12,44.5,12.5,67.4-11.1-10.7-22.6-22.5-29.6-36.4l-6.8,9.4c-7.7,8.7-18.6,15.9-30.3,16.7,2-3.3,4.1-7.5,4.5-11.4s.3-10-1.5-8.7c-14.3,20.6-32.6,38.5-53.9,51.8-9.4,5.9-19.9,11.9-30.2,15.6,7.2-5.9,15.3-10.6,22.3-16.7s11.4-10.9,11.8-11.7c.6-1.5-.9-1.1-1.8-1.1-2.8.2-9.4,2.5-12.4,3.5-52.8,17.3-99.2,66.4-110.7,121.1-24.5,10.3-48.6,27.5-55.2,54.7-3.2,13.1-3.1,27.2.1,40.3s7.5,18.7,8,28.8l-7-11.6-12.7-15.7c3.7,11.8,5.6,24,6,36.4l-5.3-18.6c-4.2-18.9-18-25.5-30.7-37.5-6.3-6-13.2-13.2-18.5-20.1-12.1-15.8-15.8-35-29.2-49.6s-9.8-6-19.9-8.9c-5.6-1.6-10.7-4.2-16.1-6.3,2.1,5.9.1,12.7,0,18.5-1.1,44.4-.1,102.2,25.9,140.1,8.5,12.4,21.5,19.8,31.3,31.6,5.9,7,10.2,16.8,15.2,22.7s11.5,8.9,12.2,9c14.3-7.4,26.4-19.3,34.9-33l6.2-13.1v11.7c0,1.4-2.4,9.5-3,11.4-4.3,12.8-13.2,23.5-22.7,32.6,3.1,6.4,14.1,1.3,19.3-.4,16-5.3,32.9-14.4,47.3-23.2,31.6-19.4,64.7-46.7,73.6-84.4-18.5,13.3-43.8,15.3-65.3,8.9-1.2-.4-4-.7-4.4-2.1h11c4,0,16.1-3.8,20.3-5.5,42.1-16.6,49.8-58.7,40.5-99.2-4.7-20.4-14.5-30.3-36.1-31.3,7.9-2.3,15.8-2.7,23.5.4-4.4-11.2-5-22.5-2.1-34.3s.9-4.5,2-5.1c-.7,11.8.9,22.8,4.2,34.1l3.4,8.3v-11l4.5-12.5v17c0,6,5.9,21.6,8.3,28.1,5.7,15.4,18.4,29.4,31.6,38.9,21.8,15.7,48.4,17.9,74.5,15.3l-11.6,7c-14.3,10.4-27,23.3-23,42.5,2.5,12.2,8.6,12.1,15.7,19.9,14.9,16.3,13.7,41.5,30.3,59.9,4.3,4.8,18.8,16.7,24.8,17.7s7-1,8.7-1.6c14.7-5.1,10.3-20,7-31.6-2.4-8.5-5.8-16.4-12.1-22.8-3-3-14.5-10.5-15.4-13.4-1.5-5,2.8-11.6,2.9-17.3.4-15.1-4.7-27.9-1.2-44.4.3-1.3.7-4.6,1.9-5.3.4,21.5,6.8,54.8,29.4,63.5,20.8,8,47.6.7,68.4-4.4-8.4,5.8-19.2,11.4-29,14.6-14.3,4.7-31.1,2.5-28.4,23.5,3.2,25.5,22.7,30.5,45,33.8,29.4,4.4,62.8-5.5,87.4,14.1-15-1.1-29.6-.6-44.2,2.7-11.2,2.5-47.9,12.2-54.7,19.6s-4.1,20.3,3.8,26.5c2,1.6,8.3,5.1,10.6,5.3s15.7-4.9,18.9-6c44.7-15.9,86-39.9,123.9-68.2l-2.3-.8c-.7-.5,9.6-5.8,10.6-6.5,21.8-15.1,51-56.8,20-76.7l-29.8-17.6c25.3-1.9,62-10.4,64.4-41.3,1.2-15.7-16.1-53.3-32.5-57.6-25.8-6.8-39.6,22.6-56.1,37.2-18.5,16.4-48,28.5-72.5,32.1-.6,0-2.6.4-1.4-.7,10.2-2.5,19.6-9,27.7-15.5,2.4-1.9,4.8-5.6,7.3-7.1s8.4-3,11.9-4.8c10.8-5.3,20.7-12.4,28.5-21.5,1.3-1.5,6.3-7.7,6.8-9.1s-.8-1.2-1.7-1c-5.3,1.2-11.8,4.3-17.6,5.9-15,3.9-31.4,6-46.9,5.4-.9,0-2.8.6-2.6-.7,13.2-.5,26.7-4.6,39-9.1,21.5-7.8,54.7-23.8,66.6-44,5.4-9.1,1.7-10.1,2.8-19.2s2.8-7.8,3.7-11.8c2.3,2.3,2.2,5.9,4.9,8.3s7.6,4.1,8.7,3c.7-8.1-3.4-15.5-9.5-20.5l-4.5-3c11.3,1.8,22.5,8.6,25.5,20.4,28.5-1.3,53.5,14.1,71.9,34.6-.8,1.3-1.7-.3-2.3-.8-18.5-14.2-38.7-21.2-62.1-14.4s-5.6,1.3-6.8,3.4c39.3,12.6,41,64.4,67.8,90.2,19.2-36.4,32.8-75.4,42-115.6s.2-1.2-.4-1.1c-3.6,3.3-7.5,6.2-11.7,8.8s-1.6,1.9-2.3.7c10.8-12.2,19.5-24.1,16.3-41.3-4.6-25.1-28.7-62.5-50.5-76s-28.4-9.2-44.5-13.1c-14.3-3.4-27-9.1-42.2-10.1-54.7-3.6-56.5,39.7-27.3,73.5l12.9,13.6c-33.7-14.8-68.8-47.4-36.8-83.8l14.4-12.5c-15-1.5-27.8,7.1-41.3,11.4-11.3,3.6-13,.6-23.5,0-26.2-1.6-53.3,11.1-74.6,25l5.7-7.6c27.4-28.4,53.6-22.9,87.5-33s13.7-4.3,17.4-9.5c-12.2-3.4-24.7-6.2-36.6-10.8-34.4-13.4-57.2-45.1-76.3-75.2-.7-.8-1.1.4-1.4.9-1.6,3.1-2.4,7.2-5.5,9.3,1-6.6-8.3-17.3-14-18.9s-1,.3-1.1,1.1c-1.3,8.4-2.5,15.1-8.7,21.6-7.8-15.1-25.3-15.5-40.1-12.2-1.4,12.6-9.6,37.3-26.8,29.8s-13-15.9-15.2-20.4c-4.5-8.8,4.7-7.3,2.9-14.6,5.9,1.1,3.9,11.5,11.3,5.6.5-1.9-3.7-5-3.8-8.3-.2-3.9,3.5-7.5,3.1-10.6s-10.1-8.5-7.3-17.1c2.2-6.8,7.9,3.7,8.4,6.9,1.2-3.7.2-7.2-1.1-10.6,7,0,14.2,2.2,17,9.1s2.7,10.8,2.7,13.3v11l-3.9-12.4c-1.6-2.9-4-5.8-7.4-6.6,6.6,7.4,8.7,17.6,8.3,27.3l2.3-6.8c-.4,6.8,3.4,14.6-3,19.7,1.3-3-1.4-6.3-1.5-8s1.9-6-2.7-6.5-4.6,6.7-12,5.3-3.5-2.8-5.7-.4c-4,4.4,6,12,10.6,8.7l-1.5,4.5,5.3-1.5c-1.3,2.7-4,3.5-6.7,3.9-1.6,5.7,6.3,6.6,10.3,4.6,14.3-7.1,16-46.9,10-59.5-5.4-11.3-21-17.6-32-10.2s-3.9,6.2-6.2,9.7-5.3,4-7.2,6.5c-5.9,8-4.1,16.1-1.3,24.8.4,1.4,1.8,3.1,2,4.2.7,4.9-18.3,20.4-21.7,6.4s-2.1-28.3-12.8-41.8c-9.3-11.8-19.1-12-30.4-18.9-12.4-7.7-2.6-18.6-2.5-30.1.1-17.8-21.5-33.5-37.9-24.9s-28.4,24.3-26.6,40.1c1.4,12,14.5,10.9,12.8,23.4-1.1,8.2-11.3,5.7-8.5,15.5,1.8,6,9.3,8.6,14.6,10.4,8,2.6,47.1,8.6,49.1,15.3s-1.8,2.8-2.8,4.6-.6,5.2-1.1,7.2c-4.9,18.3-23,16.1-35,5.9-1.4,0,.5,9.9.9,11.2,2.4,7.6,10.6,11.2,14.2,18.4,1.5,2.9,1.6,6.8,2.7,8.5s7.5,4.7,9.1,6.2c5.3,4.5,9.6,9.6,8.4,17,5.3,1.2,10.2,3.7,14.3,7.3l-6.6,1.7c-5.1,2.5-1.6,7.5,1.7,10,3.6,2.7,29.7,9.8,35.1,10.4,15,1.7,49-5.1,62.6-12,6.6-3.4,8.8-9,9.6-16.2ZM240.2,435.4c-3.1-9.9-10-19.7-16.7-27.6-30.1-35.9-78.9-39.9-115.8-11.3-25.6,19.9-40.4,50.1-33.4,82.9,1.3.2.7-1.7.7-2.6.4-10.2.7-18.1,3.8-28.1,11.9-39,57.7-64.6,97.4-61.7l5.7,1.5c-29-1.2-58.3,8-77.3,30.7s-5.6,7.2-6.8,11c15-18.1,34.4-32.4,58.2-36.1,23.7-3.7,55.4,2,70.9,21.8,4.9,6.2,7.2,14.4,13.3,19.6ZM272.8,481.6c.3-1.4-.8-1.8-1.5-2.6-28.5-34.5-83.7-35-121-14.9-23.4,12.6-44.9,45.1-47,71.7l6.7,4.8c-.6,12.2,1.8,24.1,4.5,35.8,1.3.2.7-1.7.7-2.6.2-6-.4-12.3,0-18.2,2.1-28.3,23.5-60.8,48.1-74.6,2.3-.1.5.8-.1,1.4-6.1,5.1-11.9,9.1-17.3,15.3s-7.2,8.9-9.5,13.6l17.1-15.1,1.1.4c-3.4,3.3-6.8,7-9.4,11.1s-2,2.2-.8,2.9c9.2-8.3,19.7-14.3,30.5-20.3s1.9-1.7,2.5-.5c-23.8,17.9-47.9,42.6-49.2,74.3-.8,18.3,6.6,39.7,20.4,51.9l-7.5-12.6c-31.9-71.3,47.4-141.6,116.3-110.3l14.6,7.7c-6.6-7.8-16.1-13.1-25.6-16.9-9.5-16.9-2.2-14,11.4-9.5l14.9,7.4ZM290.2,890c55.3,29.6,117,49.2,180,53.8,16,1.2,39.7,2.3,55.3.8,1,0,2,0,2.4-1.1-2.8-23.4-2.8-50.5-10.4-72.8-5-14.6-14-20.1-22.3-31.5-10.4-14.2-9.7-28.3-12.8-44.8-5.2-27.3-14.5-55.1-37.3-72.6l-10.2,33.7c-19,59-75.6,96.6-127.6,124.8-5,2.7-11.7,5.1-16.2,8-.7.5-1.4,0-1,1.7ZM857.7,769.5l27.2-38.4c.6-2.3-7.3-6.8-8.6-9.3-1.2-.5-2.8,3.9-3.3,5-6.3,13.3-11,28.6-15.3,42.7ZM586.5,913.5c10.1-8.7,0-35.5-7.9-42.4s-19.3-4.1-27.2.2c-16.3,8.9-4.3,39.4,4.8,50.2,4,4.8,17.9,15.3,23.9,16.3,6.9,1.1,18.2-3.7,25.3-4.5-3.2-10.3-6.5-19.2-18.9-19.7Z"/>
  <path d="M509.9,634.3c0,.7,2.1,4.5,0,4.9-5.4-12.7-1.5-27-3-39.8-.7-6-5.6-7.5-10.6-9.1s-14.2-2.8-21.2-3.8c13.1-1.4,31,0,40.1-11.4s12.9-26.4,15.7-37.3l4.8-21.4c.8,6.3.7,11.4,0,17.7-2,15.4-6.6,30.5-9.5,45.7,0,6.6,4.8,10.9,8.8,15.4-8.4-1.3-17.5-1.2-21.9,7.3s-3.1,8.7-3.1,10.5c0,6.9-.4,14.4,0,21.2Z"/>
  <path d="M459.1,420.3l-4.2-12.1c-8.6-21.4-26.9-34.5-46.6-45.1l-15.2-5.6h14.8c23.7,0,51.1,25.9,51.1,49.6v13.3Z"/>
  <path d="M513.7,619.5l3,12.5c12.6,31,44.3,50.4,77.3,52.3-30.3,1.4-67.5-7.3-77.5-40-.9-3.1-2.8-10.1-2.8-13.1v-11.7Z"/>
</svg>